<!-- Placeholder SVG for Amsterdam Skyline -->
<svg xmlns="http://www.w3.org/2000/svg" viewBox="0 0 400 200" width="400" height="200">
  <defs>
    <linearGradient id="skyGradient" x1="0%" y1="0%" x2="0%" y2="100%">
      <stop offset="0%" style="stop-color:#87CEEB;stop-opacity:1" />
      <stop offset="100%" style="stop-color:#E0F6FF;stop-opacity:1" />
    </linearGradient>
  </defs>
  
  <!-- Sky -->
  <rect width="400" height="200" fill="url(#skyGradient)"/>
  
  <!-- Buildings -->
  <rect x="20" y="120" width="30" height="80" fill="#4a5568"/>
  <rect x="60" y="100" width="25" height="100" fill="#2d3748"/>
  <rect x="95" y="110" width="35" height="90" fill="#4a5568"/>
  <rect x="140" y="90" width="40" height="110" fill="#2d3748"/>
  <rect x="190" y="105" width="30" height="95" fill="#4a5568"/>
  <rect x="230" y="115" width="25" height="85" fill="#2d3748"/>
  <rect x="265" y="95" width="45" height="105" fill="#4a5568"/>
  <rect x="320" y="125" width="30" height="75" fill="#2d3748"/>
  <rect x="360" y="110" width="25" height="90" fill="#4a5568"/>
  
  <!-- Windows -->
  <rect x="25" y="130" width="4" height="6" fill="#fff3a0"/>
  <rect x="32" y="130" width="4" height="6" fill="#fff3a0"/>
  <rect x="25" y="145" width="4" height="6" fill="#fff3a0"/>
  <rect x="67" y="120" width="4" height="6" fill="#fff3a0"/>
  <rect x="74" y="120" width="4" height="6" fill="#fff3a0"/>
  <rect x="100" y="125" width="4" height="6" fill="#fff3a0"/>
  <rect x="115" y="125" width="4" height="6" fill="#fff3a0"/>
  
  <!-- Canal -->
  <rect x="0" y="180" width="400" height="20" fill="#4299e1"/>
  
  <!-- Reflection -->
  <rect x="20" y="180" width="30" height="15" fill="#4a5568" opacity="0.3"/>
  <rect x="60" y="180" width="25" height="15" fill="#2d3748" opacity="0.3"/>
  <rect x="95" y="180" width="35" height="15" fill="#4a5568" opacity="0.3"/>
</svg>
